<svg xmlns="http://www.w3.org/2000/svg" width="558" height="558" xmlns:v="https://vecta.io/nano"><path d="M52.19 321.51c19.04 0 33.41 10.71 37.97 28.04H68.72c-3.3-6.84-9.34-10.26-16.75-10.26-11.97 0-20.18 8.89-20.18 23.03s8.21 23.03 20.18 23.03c7.41 0 13.45-3.42 16.75-10.26h21.44c-4.56 17.33-18.93 27.93-37.97 27.93-23.59 0-40.24-16.76-40.24-40.7s16.65-40.81 40.24-40.81zm78.78 81.85c-18.7 0-32.83-12.54-32.83-32.72s14.47-32.72 33.06-32.72c18.69 0 33.06 12.54 33.06 32.72s-14.6 32.72-33.29 32.72zm0-16.87c6.95 0 13.45-5.13 13.45-15.85 0-10.83-6.38-15.84-13.22-15.84-7.07 0-13.23 5.01-13.23 15.84 0 10.72 5.93 15.85 13 15.85zm87.44-18.58c0-8.67-4.79-13.46-12.2-13.46s-12.2 4.79-12.2 13.46v34.54h-19.49v-63.61h19.49v8.43c3.88-5.36 10.72-9.12 19.27-9.12 14.7 0 24.51 10.03 24.51 27.13v37.17h-19.38v-34.54zm35.91-12.89h-7.76v-16.18h7.76v-15.51h19.49v15.51h12.77v16.18h-12.77v25.54c0 3.76 1.6 5.36 5.93 5.36h6.95v16.53h-9.92c-13.22 0-22.45-5.59-22.45-22.12v-25.31zm62.58 47.43h-19.49v-63.61h19.49v10.6c4.45-6.73 11.4-11.29 19.95-11.29v20.64h-5.36c-9.23 0-14.59 3.19-14.59 14.13v29.53zm58.14.91c-18.69 0-32.83-12.54-32.83-32.72s14.48-32.72 33.06-32.72c18.7 0 33.06 12.54 33.06 32.72s-14.59 32.72-33.29 32.72zm0-16.87c6.96 0 13.45-5.13 13.45-15.85 0-10.83-6.38-15.84-13.22-15.84-7.07 0-13.22 5.01-13.22 15.84 0 10.72 5.92 15.85 12.99 15.85zm43.55-68.4h19.49v84.36h-19.49v-84.36zm33.52 0h19.49v84.36h-19.49v-84.36zm57.68 19.83c9.46 0 16.19 4.34 19.61 9.92v-9h19.49v63.61H529.4v-9.01c-3.54 5.59-10.26 9.92-19.72 9.92-15.51 0-27.93-12.77-27.93-32.83 0-20.07 12.42-32.61 28.04-32.61zm5.7 16.99c-7.3 0-13.91 5.47-13.91 15.62 0 10.14 6.61 15.84 13.91 15.84 7.41 0 13.91-5.58 13.91-15.73 0-10.14-6.5-15.73-13.91-15.73zm-482.77 68.2c5.74 0 10.3 2.89 12.28 8.02h-4.14c-1.45-3.19-4.26-4.98-8.14-4.98-5.54 0-9.69 4.03-9.69 10.53 0 6.46 4.15 10.48 9.69 10.48 3.88 0 6.69-1.78 8.14-4.94H45c-1.98 5.1-6.54 7.95-12.28 7.95-7.41 0-13.22-5.55-13.22-13.49 0-7.95 5.81-13.57 13.22-13.57zm41.8 27.09c-7.44 0-13.3-5.58-13.3-13.52 0-7.95 5.86-13.53 13.3-13.53 7.49 0 13.3 5.58 13.3 13.53 0 7.94-5.81 13.52-13.3 13.52zm0-3c5.59 0 9.77-4.06 9.77-10.52 0-6.5-4.18-10.53-9.77-10.53-5.58 0-9.76 4.03-9.76 10.53 0 6.46 4.18 10.52 9.76 10.52zm51.08-23.79v26.53h-3.46l-13.91-21.09v21.09h-3.46v-26.53h3.46l13.91 21.06v-21.06h3.46zm39.1 0v26.53h-3.46l-13.91-21.09v21.09h-3.46v-26.53h3.46l13.91 21.06v-21.06h3.46zm32.53 2.85h-10.8v8.86h9.66v2.85h-9.66v9.12h10.8v2.85h-14.25v-26.53h14.25v2.85zm29.56-3.15c5.74 0 10.3 2.89 12.27 8.02h-4.14c-1.44-3.19-4.25-4.98-8.13-4.98-5.55 0-9.69 4.03-9.69 10.53 0 6.46 4.14 10.48 9.69 10.48 3.88 0 6.69-1.78 8.13-4.94h4.14c-1.97 5.1-6.53 7.95-12.27 7.95-7.41 0-13.22-5.55-13.22-13.49 0-7.95 5.81-13.57 13.22-13.57zm28.16.34h17.93v2.81h-7.22v23.68h-3.45v-23.68h-7.26v-2.81zm34.58 0h3.46v26.49h-3.46v-26.49zm42.56-.04v26.53h-3.46l-13.91-21.09v21.09h-3.46v-26.53h3.46l13.91 21.06v-21.06h3.46zm42.48 7.72h-4.14c-1.44-3.08-4.33-4.87-8.06-4.87-5.58 0-9.76 4.03-9.76 10.42 0 6.34 4.18 10.37 9.76 10.37 5.21 0 8.78-3.34 9.31-8.59h-10.56v-2.81h14.25v2.66c-.61 6.57-5.81 11.86-13 11.86-7.44 0-13.3-5.55-13.3-13.49 0-7.95 5.86-13.53 13.3-13.53 5.59 0 10.23 2.89 12.2 7.98zm62.59 5.62c0 8.21-5.36 13.19-14.06 13.19h-8.25v-26.49h8.25c8.7 0 14.06 5.09 14.06 13.3zm-14.06 10.34c6.91 0 10.52-3.88 10.52-10.34s-3.61-10.49-10.52-10.49h-4.79v20.83h4.79zm43.01 3.11c-7.44 0-13.3-5.58-13.3-13.52 0-7.95 5.86-13.53 13.3-13.53 7.49 0 13.3 5.58 13.3 13.53 0 7.94-5.81 13.52-13.3 13.52zm0-3c5.59 0 9.77-4.06 9.77-10.52 0-6.5-4.18-10.53-9.77-10.53-5.58 0-9.76 4.03-9.76 10.53 0 6.46 4.18 10.52 9.76 10.52zm28.62-23.75h17.93v2.81h-7.22v23.68h-3.45v-23.68h-7.26v-2.81zm42.98 26.75c-5.32 0-9.09-2.96-9.16-7.33h3.68c.23 2.2 1.79 4.41 5.48 4.41 3.34 0 5.32-1.9 5.32-4.41 0-7.14-14.33-2.58-14.33-12.43 0-4.37 3.53-7.33 8.78-7.33 5.05 0 8.36 2.77 8.78 6.8h-3.8c-.23-1.78-1.9-3.8-5.13-3.84-2.85-.07-5.1 1.41-5.1 4.26 0 6.84 14.29 2.58 14.29 12.39 0 3.76-3.08 7.48-8.81 7.48z" fill-rule="evenodd" fill="#2c2e35"/><g fill="none" stroke-width="20"><path d="M318.97 136.51l29.26 29.26" stroke="#2c2e35"/><path d="M251.28 126.86l4.14-4.15c13.74-13.74 36.01-13.74 49.75 0l13.8 13.8" stroke="#ff9e2b"/><path d="M235.22 142.92l16.05-16.06" stroke="#73c9de"/><path d="M216.23 229.51l-8.93-8.93c-13.73-13.74-13.73-36.01 0-49.75l27.92-27.91" stroke="#2c2e35"/><path d="M305.17 268.7c-13.74 13.73-36.01 13.73-49.75 0l-39.19-39.19" stroke="#73c9de"/><path d="M320.8 253.06L305.17 268.7" stroke="#ff9e2b"/></g><path d="M361.46 165.86a13.23 13.23 0 0 1-13.23 13.23c-7.31 0-13.24-5.92-13.24-13.23s5.93-13.23 13.24-13.23a13.23 13.23 0 0 1 13.23 13.23z" fill="#2c2e35"/></svg>