<svg width="17" height="212" viewBox="0 0 17 212" fill="none" xmlns="http://www.w3.org/2000/svg">
<path d="M3.83301 3.12402C3.83301 4.47754 4.58008 5.68164 5.66992 6.18262L5.66992 6.21777L4 6.21777L4 7.37793L10.2578 7.37793C12.1299 7.37793 13.3076 6.06836 13.3076 3.97656C13.3076 1.91113 12.1826 0.610351 10.6094 0.43457L10.5039 0.425781L10.5039 1.55078L10.5918 1.56836C11.6289 1.76172 12.2705 2.63184 12.2705 3.95898C12.2705 5.38281 11.4707 6.21777 10.1523 6.21777L9.36133 6.21777L9.18555 3.37012C9.04492 1.26953 8.10449 0.0917965 6.54883 0.0917964L6.53125 0.0917964C4.91406 0.0917964 3.83301 1.32227 3.83301 3.12402ZM6.53125 1.27832L6.54883 1.27832C7.55078 1.27832 8.1748 2.07812 8.2627 3.51074L8.44727 6.21777L7.43652 6.21777C5.97754 6.21777 4.85254 4.96094 4.85254 3.36133C4.85254 2.12207 5.5293 1.27832 6.53125 1.27832Z" fill="#3B393C"/>
<path d="M0.923828 9.3291L0.923828 10.4893L5.90723 10.4893L5.90723 10.5244C4.68555 11.0254 3.83301 12.1855 3.83301 13.6445C3.83301 15.9385 5.69629 17.5029 8.56152 17.5029L8.57031 17.5029C11.4268 17.5029 13.3076 15.9473 13.3076 13.627C13.3076 12.1592 12.4463 11.0342 11.207 10.5244L11.207 10.4893L13.1406 10.4893L13.1406 9.3291L0.923828 9.3291ZM4.87012 13.4248C4.87012 11.7109 6.35547 10.4893 8.56152 10.4893L8.57031 10.4893C10.7852 10.4893 12.2705 11.7021 12.2705 13.4248C12.2705 15.1826 10.8291 16.3164 8.57031 16.3164L8.56152 16.3164C6.32031 16.3164 4.87012 15.1826 4.87012 13.4248Z" fill="#3B393C"/>
<path d="M3.83301 22.7764C3.83301 25.2637 5.66113 26.9424 8.57031 26.9424L8.58789 26.9424C11.4971 26.9424 13.3076 25.2549 13.3076 22.7764C13.3076 20.2891 11.4883 18.6104 8.58789 18.6104L8.57031 18.6104C5.66992 18.6104 3.8418 20.2803 3.83301 22.7764ZM4.87012 22.7852C4.87891 20.9834 6.25 19.8057 8.57031 19.8057L8.58789 19.8057C10.8906 19.8057 12.2705 20.9922 12.2705 22.7764C12.2705 24.5605 10.8994 25.7559 8.58789 25.7559L8.57031 25.7559C6.25879 25.7559 4.87012 24.5693 4.87012 22.7852Z" fill="#3B393C"/>
<path d="M3.83301 31.8994C3.83301 33.3408 4.6416 34.4834 5.89844 35.0107L5.89844 35.0459L4 35.0459L4 36.2148L16.6826 36.2148L16.6826 35.0459L11.2334 35.0459L11.2334 35.0195C12.499 34.501 13.3076 33.3232 13.3076 31.8906C13.3076 29.6055 11.4355 28.0322 8.5791 28.0322L8.57031 28.0322C5.71387 28.0322 3.83301 29.5967 3.83301 31.8994ZM4.87012 32.1191C4.87012 30.3613 6.31152 29.2275 8.57031 29.2275L8.5791 29.2275C10.8203 29.2275 12.2705 30.3613 12.2705 32.1191C12.2705 33.8242 10.7764 35.0547 8.5791 35.0547L8.57031 35.0547C6.36426 35.0547 4.87012 33.8418 4.87012 32.1191Z" fill="#3B393C"/>
<path d="M3.83301 41.0049C3.83301 42.3584 4.58008 43.5625 5.66992 44.0635L5.66992 44.0986L4 44.0986L4 45.2588L10.2578 45.2588C12.1299 45.2588 13.3076 43.9492 13.3076 41.8574C13.3076 39.792 12.1826 38.4912 10.6094 38.3154L10.5039 38.3066L10.5039 39.4316L10.5918 39.4492C11.6289 39.6426 12.2705 40.5127 12.2705 41.8398C12.2705 43.2637 11.4707 44.0986 10.1523 44.0986L9.36133 44.0986L9.18555 41.251C9.04492 39.1504 8.10449 37.9727 6.54883 37.9727L6.53125 37.9727C4.91406 37.9727 3.83301 39.2031 3.83301 41.0049ZM6.53125 39.1592L6.54883 39.1592C7.55078 39.1592 8.1748 39.959 8.26269 41.3916L8.44726 44.0986L7.43652 44.0986C5.97754 44.0986 4.85254 42.8418 4.85254 41.2422C4.85254 40.0029 5.5293 39.1592 6.53125 39.1592Z" fill="#3B393C"/>
<path d="M3.83301 50.9102C3.83301 52.9053 5.08984 54.373 6.79492 54.6455L6.86523 54.6543L6.86523 53.5029L6.79492 53.4854C5.65234 53.2129 4.87011 52.2725 4.87011 50.9102C4.87012 49.1348 6.25879 47.9482 8.56152 47.9482L8.57031 47.9482C10.8379 47.9482 12.2705 49.1172 12.2705 50.9014C12.2705 52.3252 11.418 53.2305 10.3457 53.4854L10.2754 53.5029L10.2754 54.6455L10.3545 54.6367C11.9277 54.4082 13.3076 53.0283 13.3076 50.9014C13.3076 48.3965 11.4619 46.7529 8.58789 46.7529L8.5791 46.7529C5.66992 46.7529 3.83301 48.3701 3.83301 50.9102Z" fill="#3B393C"/>
<path d="M3.83301 58.8115C3.83301 60.165 4.58008 61.3691 5.66992 61.8701L5.66992 61.9053L4 61.9053L4 63.0654L10.2578 63.0654C12.1299 63.0654 13.3076 61.7559 13.3076 59.6641C13.3076 57.5986 12.1826 56.2979 10.6094 56.1221L10.5039 56.1133L10.5039 57.2383L10.5918 57.2559C11.6289 57.4492 12.2705 58.3193 12.2705 59.6465C12.2705 61.0703 11.4707 61.9053 10.1523 61.9053L9.36133 61.9053L9.18554 59.0576C9.04492 56.957 8.10449 55.7793 6.54883 55.7793L6.53125 55.7793C4.91406 55.7793 3.83301 57.0098 3.83301 58.8115ZM6.53125 56.9658L6.54883 56.9658C7.55078 56.9658 8.1748 57.7656 8.26269 59.1982L8.44726 61.9053L7.43652 61.9053C5.97754 61.9053 4.85254 60.6484 4.85254 59.0488C4.85254 57.8096 5.52929 56.9658 6.53125 56.9658Z" fill="#3B393C"/>
<path d="M3.833 68.4268C3.833 69.8682 4.6416 71.0107 5.89843 71.5381L5.89843 71.5732L4 71.5732L4 72.7422L16.6826 72.7422L16.6826 71.5732L11.2334 71.5732L11.2334 71.5469C12.499 71.0283 13.3076 69.8506 13.3076 68.418C13.3076 66.1328 11.4355 64.5596 8.5791 64.5596L8.57031 64.5596C5.71386 64.5596 3.833 66.124 3.833 68.4268ZM4.87011 68.6465C4.87011 66.8887 6.31152 65.7549 8.57031 65.7549L8.5791 65.7549C10.8203 65.7549 12.2705 66.8887 12.2705 68.6465C12.2705 70.3516 10.7764 71.582 8.5791 71.582L8.57031 71.582C6.36425 71.582 4.87011 70.3691 4.87011 68.6465Z" fill="#3B393C"/>
<path d="M3.84179 77.998C3.84179 79.4746 4.57129 80.4941 5.55566 80.96L5.55566 80.9863L4 80.9863L4 82.1553L13.1406 82.1553L13.1406 80.9863L7.72656 80.9863C6.02148 80.9863 4.8789 79.9316 4.8789 78.332C4.8789 76.7852 5.78418 75.9414 7.48047 75.9414L13.1406 75.9414L13.1406 74.7725L7.28711 74.7725C5.14257 74.7725 3.84179 75.9766 3.84179 77.998Z" fill="#3B393C"/>
<path d="M4 84.1592L4 85.3193L9.66015 85.3193C11.207 85.3193 12.1914 86.1455 12.1914 87.4463C12.1914 87.8418 12.1299 88.167 12.0684 88.3164L13.2021 88.3164C13.2461 88.1758 13.3076 87.9033 13.3076 87.5957C13.3076 86.4883 12.6133 85.6797 11.4971 85.3545L11.4971 85.3193L13.1406 85.3193L13.1406 84.1592L4 84.1592Z" fill="#3B393C"/>
<path d="M3.833 92.7549C3.833 95.2422 5.66113 96.9209 8.57031 96.9209L8.58789 96.9209C11.4971 96.9209 13.3076 95.2334 13.3076 92.7549C13.3076 90.2676 11.4883 88.5889 8.58789 88.5889L8.57031 88.5889C5.66992 88.5889 3.84179 90.2588 3.833 92.7549ZM4.87011 92.7637C4.8789 90.9619 6.25 89.7842 8.57031 89.7842L8.58789 89.7842C10.8906 89.7842 12.2705 90.9707 12.2705 92.7549C12.2705 94.5391 10.8994 95.7344 8.58789 95.7344L8.57031 95.7344C6.25878 95.7344 4.87011 94.5479 4.87011 92.7637Z" fill="#3B393C"/>
<path d="M4 98.4678L4 99.6279L9.41406 99.6279C11.1191 99.6279 12.2617 100.691 12.2617 102.282C12.2617 103.838 11.3564 104.682 9.66015 104.682L4 104.682L4 105.842L9.85351 105.842C11.998 105.842 13.2988 104.646 13.2988 102.625C13.2988 101.148 12.5693 100.12 11.585 99.6631L11.585 99.6279L13.1406 99.6279L13.1406 98.4678L4 98.4678Z" fill="#3B393C"/>
<path d="M1.95214 114.886C1.95214 116.063 2.09277 117.109 2.33886 117.821L3.2705 117.821C3.0332 117.224 2.88378 116.081 2.88378 114.895C2.88378 111.256 5.27441 108.593 9.28222 108.593L9.29101 108.593C13.0088 108.593 15.6631 111.186 15.6631 114.728C15.6631 118.331 13.3955 120.81 9.88867 120.81L9.87988 120.81C7.6123 120.81 6.39941 120.115 6.39941 119.034C6.39941 118.217 7.05859 117.689 8.30664 117.689L12.7187 117.689L12.7187 116.661L11.4883 116.661L11.4883 116.608C12.3408 116.274 12.8945 115.396 12.8945 114.376C12.8945 112.583 11.4092 111.335 9.23828 111.335L9.22949 111.335C7.02343 111.335 5.53808 112.557 5.53808 114.376C5.53808 115.492 6.09179 116.415 7.22558 116.837L7.22558 116.907L7.1289 116.934C6.15332 117.197 5.46777 117.944 5.46777 119.017C5.46777 120.66 7.02343 121.838 9.88867 121.838L9.89746 121.838C13.9668 121.838 16.5947 118.894 16.5947 114.807C16.5947 110.57 13.5977 107.573 9.2998 107.573L9.29101 107.573C4.68554 107.573 1.95214 110.632 1.95214 114.886ZM6.49609 114.517C6.49609 113.242 7.55957 112.416 9.22949 112.416L9.23828 112.416C10.8906 112.416 11.9541 113.242 11.9541 114.525C11.9541 115.826 10.917 116.652 9.26464 116.652L9.25585 116.652C7.57714 116.652 6.49609 115.809 6.49609 114.517Z" fill="#3B393C"/>
<path d="M3.833 127.067C3.833 129.555 5.66113 131.233 8.57031 131.233L8.58788 131.233C11.4971 131.233 13.3076 129.546 13.3076 127.067C13.3076 124.58 11.4883 122.901 8.58789 122.901L8.57031 122.901C5.66992 122.901 3.84179 124.571 3.833 127.067ZM4.87011 127.076C4.8789 125.274 6.24999 124.097 8.57031 124.097L8.58789 124.097C10.8906 124.097 12.2705 125.283 12.2705 127.067C12.2705 128.852 10.8994 130.047 8.58788 130.047L8.57031 130.047C6.25878 130.047 4.87011 128.86 4.87011 127.076Z" fill="#3B393C"/>
<path d="M3.84179 135.953C3.84179 137.43 4.57128 138.449 5.55566 138.915L5.55566 138.941L3.99999 138.941L3.99999 140.11L13.1406 140.11L13.1406 138.941L7.72656 138.941C6.02148 138.941 4.8789 137.887 4.8789 136.287C4.8789 134.74 5.78417 133.896 7.48046 133.896L13.1406 133.896L13.1406 132.728L7.2871 132.728C5.14257 132.728 3.84179 133.932 3.84179 135.953Z" fill="#3B393C"/>
<path d="M3.833 144.839C3.833 145.12 3.86816 145.419 3.90331 145.604L4.85253 145.604C4.83495 145.472 4.80859 145.287 4.80859 145.076C4.80859 144.224 5.15136 143.793 6.1621 143.793L12.165 143.793L12.165 145.604L13.1406 145.604L13.1406 143.793L15.6103 143.793L15.6103 142.598L13.1406 142.598L13.1406 141.253L12.165 141.253L12.165 142.598L6.14453 142.598C4.54492 142.598 3.833 143.336 3.833 144.839Z" fill="#3B393C"/>
<path d="M3.99999 147.309L3.99999 148.469L16.6826 148.469L16.6826 147.309L3.99999 147.309Z" fill="#3B393C"/>
<path d="M3.833 154.261C3.833 156.748 5.66113 158.427 8.57031 158.427L8.58788 158.427C11.4971 158.427 13.3076 156.739 13.3076 154.261C13.3076 151.773 11.4883 150.095 8.58788 150.095L8.57031 150.095C5.66992 150.095 3.84179 151.765 3.833 154.261ZM4.87011 154.27C4.8789 152.468 6.24999 151.29 8.57031 151.29L8.58788 151.29C10.8906 151.29 12.2705 152.477 12.2705 154.261C12.2705 156.045 10.8994 157.24 8.58788 157.24L8.57031 157.24C6.25878 157.24 4.87011 156.054 4.87011 154.27Z" fill="#3B393C"/>
<path d="M3.833 163.683C3.833 166.17 5.66113 167.849 8.57031 167.849L8.58788 167.849C11.4971 167.849 13.3076 166.161 13.3076 163.683C13.3076 161.195 11.4883 159.517 8.58788 159.517L8.57031 159.517C5.66991 159.517 3.84179 161.187 3.833 163.683ZM4.87011 163.691C4.8789 161.89 6.24999 160.712 8.57031 160.712L8.58788 160.712C10.8906 160.712 12.2705 161.898 12.2705 163.683C12.2705 165.467 10.8994 166.662 8.58788 166.662L8.57031 166.662C6.25878 166.662 4.87011 165.476 4.87011 163.691Z" fill="#3B393C"/>
<path d="M3.99999 169.51L3.99999 170.67L7.54198 170.67L8.4912 171.689L3.99999 175.346L3.99999 176.717L9.20312 172.524L13.1406 176.629L13.1406 175.187L8.83398 170.705L8.83398 170.67L16.6826 170.67L16.6826 169.51L3.99999 169.51Z" fill="#3B393C"/>
<path d="M3.88573 178.703C3.88573 179.16 4.24609 179.521 4.70312 179.521C5.16015 179.521 5.5205 179.16 5.5205 178.703C5.5205 178.246 5.16015 177.886 4.70312 177.886C4.24609 177.886 3.88573 178.246 3.88573 178.703Z" fill="#3B393C"/>
<path d="M3.833 184.715C3.833 186.71 5.08984 188.178 6.79491 188.45L6.86523 188.459L6.86523 187.308L6.79491 187.29C5.65234 187.018 4.87011 186.077 4.87011 184.715C4.87011 182.939 6.25878 181.753 8.56152 181.753L8.5703 181.753C10.8379 181.753 12.2705 182.922 12.2705 184.706C12.2705 186.13 11.418 187.035 10.3457 187.29L10.2754 187.308L10.2754 188.45L10.3545 188.441C11.9277 188.213 13.3076 186.833 13.3076 184.706C13.3076 182.201 11.4619 180.558 8.58788 180.558L8.57909 180.558C5.66991 180.558 3.833 182.175 3.833 184.715Z" fill="#3B393C"/>
<path d="M3.833 193.618C3.833 196.105 5.66112 197.784 8.5703 197.784L8.58788 197.784C11.4971 197.784 13.3076 196.097 13.3076 193.618C13.3076 191.131 11.4883 189.452 8.58788 189.452L8.5703 189.452C5.66991 189.452 3.84179 191.122 3.833 193.618ZM4.87011 193.627C4.8789 191.825 6.24999 190.647 8.5703 190.647L8.58788 190.647C10.8906 190.647 12.2705 191.834 12.2705 193.618C12.2705 195.402 10.8994 196.598 8.58788 196.598L8.5703 196.598C6.25878 196.598 4.87011 195.411 4.87011 193.627Z" fill="#3B393C"/>
<path d="M3.99999 199.331L3.99999 200.491L9.6162 200.491C11.1807 200.491 12.2617 201.458 12.2617 202.803C12.2617 204.051 11.4004 204.895 10.0908 204.895L3.99999 204.895L3.99999 206.063L9.75683 206.063C11.2246 206.063 12.2617 206.995 12.2617 208.349C12.2617 209.676 11.4092 210.467 9.98534 210.467L3.99999 210.467L3.99999 211.627L10.249 211.627C12.1035 211.627 13.2988 210.458 13.2988 208.665C13.2988 207.276 12.499 206.23 11.3652 205.791L11.3652 205.765C12.5254 205.422 13.2988 204.455 13.2988 203.119C13.2988 201.836 12.5781 200.904 11.5674 200.526L11.5674 200.491L13.1406 200.491L13.1406 199.331L3.99999 199.331Z" fill="#3B393C"/>
</svg>
