<svg width="27" height="27" viewBox="0 0 27 27" fill="none" xmlns="http://www.w3.org/2000/svg">
<g clip-path="url(#clip0)">
<path d="M17.715 24.7856V20.5008C17.7565 19.9728 17.6852 19.4421 17.5058 18.9439C17.3263 18.4456 17.0429 17.9913 16.6743 17.611C20.1508 17.2235 23.8046 15.906 23.8046 9.86071C23.8043 8.31488 23.2096 6.82833 22.1438 5.70874C22.6485 4.35632 22.6128 2.86144 22.0441 1.53464C22.0441 1.53464 20.7376 1.14712 17.715 3.17328C15.1773 2.48552 12.5024 2.48552 9.96468 3.17328C6.94205 1.14712 5.63557 1.53464 5.63557 1.53464C5.06689 2.86144 5.03121 4.35632 5.53592 5.70874C4.46209 6.83664 3.86686 8.33662 3.87514 9.89392C3.87514 15.8949 7.52886 17.2124 11.0054 17.6442C10.6412 18.0207 10.3602 18.4696 10.1809 18.9617C10.0016 19.4539 9.92793 19.9783 9.96468 20.5008V24.7856M9.96468 21.4641C4.42873 23.1248 4.42873 18.6961 2.21436 18.1425L9.96468 21.4641Z" stroke="#3B393C" stroke-width="2.21438" stroke-linecap="round" stroke-linejoin="round"/>
</g>
<defs>
<clipPath id="clip0">
<rect width="26.5725" height="26.5725" fill="white" transform="translate(0 0.427429)"/>
</clipPath>
</defs>
</svg>
