<svg width="27" height="28" viewBox="0 0 27 28" fill="none" xmlns="http://www.w3.org/2000/svg">
<path d="M18.8222 2.88496H7.7503C4.69288 2.88496 2.21436 5.36349 2.21436 8.42091V19.4928C2.21436 22.5502 4.69288 25.0288 7.7503 25.0288H18.8222C21.8796 25.0288 24.3581 22.5502 24.3581 19.4928V8.42091C24.3581 5.36349 21.8796 2.88496 18.8222 2.88496Z" stroke="#3B393C" stroke-width="2.21438" stroke-linecap="round" stroke-linejoin="round"/>
<path d="M17.715 13.2593C17.8517 14.1808 17.6943 15.1219 17.2652 15.9487C16.8362 16.7756 16.1574 17.4461 15.3253 17.8649C14.4932 18.2837 13.5503 18.4295 12.6306 18.2815C11.7109 18.1335 10.8612 17.6993 10.2026 17.0406C9.54386 16.3819 9.10964 15.5323 8.96165 14.6126C8.81366 13.6929 8.95943 12.7499 9.37824 11.9178C9.79704 11.0858 10.4676 10.4069 11.2944 9.97789C12.1213 9.54885 13.0623 9.39146 13.9838 9.5281C14.9237 9.66748 15.7939 10.1055 16.4658 10.7774C17.1377 11.4492 17.5756 12.3194 17.715 13.2593Z" stroke="#3B393C" stroke-width="2.21438" stroke-linecap="round" stroke-linejoin="round"/>
<path d="M19.3759 7.86732H19.3876" stroke="#3B393C" stroke-width="2.21438" stroke-linecap="round" stroke-linejoin="round"/>
</svg>
