<svg width="27" height="27" viewBox="0 0 27 27" fill="none" xmlns="http://www.w3.org/2000/svg">
<g clip-path="url(#clip0)">
<path d="M25.4653 21.0366C25.4653 21.6239 25.232 22.1871 24.8168 22.6024C24.4015 23.0177 23.8383 23.251 23.251 23.251H3.32156C2.73427 23.251 2.17103 23.0177 1.75575 22.6024C1.34048 22.1871 1.10718 21.6239 1.10718 21.0366V8.85751C1.10718 8.27022 1.34048 7.70699 1.75575 7.29171C2.17103 6.87643 2.73427 6.64313 3.32156 6.64313H7.75031L9.96469 3.32156H16.6078L18.8222 6.64313H23.251C23.8383 6.64313 24.4015 6.87643 24.8168 7.29171C25.232 7.70699 25.4653 8.27022 25.4653 8.85751V21.0366Z" stroke="#3B393C" stroke-width="2.21438" stroke-linecap="round" stroke-linejoin="round"/>
<path d="M13.2863 18.8222C15.7322 18.8222 17.7151 16.8394 17.7151 14.3935C17.7151 11.9475 15.7322 9.96471 13.2863 9.96471C10.8404 9.96471 8.85754 11.9475 8.85754 14.3935C8.85754 16.8394 10.8404 18.8222 13.2863 18.8222Z" stroke="#3B393C" stroke-width="2.21438" stroke-linecap="round" stroke-linejoin="round"/>
</g>
<defs>
<clipPath id="clip0">
<rect width="26.5725" height="26.5725" fill="white"/>
</clipPath>
</defs>
</svg>
