<svg xmlns="http://www.w3.org/2000/svg" xmlns:xlink="http://www.w3.org/1999/xlink" width="505" height="504" xmlns:v="https://vecta.io/nano"><path d="M197.35 127.99h190.29v159.94H197.35V127.99z" fill="#a4c2f7"/><path d="M197.35 127.99h176.1v159.94h-176.1V127.99z" fill="#e3e7f2"/><g fill-rule="evenodd"><path d="M321.45 260.37v118.19a9.48 9.48 0 0 1-9.46 9.45H146.52a9.47 9.47 0 0 1-9.45-9.45V260.37h184.38zm-116.16 28.36l-2.04 4.73h18.92l2.03-4.73h-18.91z" fill="#a4c2f7"/><path d="M307.27 260.37v118.19a9.48 9.48 0 0 1-9.46 9.45H146.52a9.47 9.47 0 0 1-9.45-9.45V260.37h170.2zm-116.16 28.36l-2.04 4.73h18.91l2.04-4.73h-18.91z" fill="#e3e7f2"/></g><path d="M259.66 137.16l-14.8 14.85-7.38 7.37-6.8 6.86-14.19 14.18-7.32 7.37-6.81 6.86-7.38 7.38-6.81 6.85-7.32 7.33-6.86 6.9-14.18 14.18-7.28 7.33v.05l-6.91 6.86-7.28 7.32-1.51 1.52-16.74-16.79a9.47 9.47 0 0 1-2.77-6.69c0-2.51 1-4.91 2.77-6.69l8.37-8.41 14.19-14.19 7.23-7.28 6.95-6.95 7.19-7.23 6.99-7 7.19-7.23 6.95-7 7.23-7.18 6.95-7 7.19-7.23 14.18-14.19 7-7.04 1.84-1.84c1.77-1.79 4.18-2.79 6.69-2.79s4.92 1 6.69 2.79l16.74 16.73zM160.7 317.1v47.28l56.74-23.64-56.74-23.64z" fill="#e3e7f2"/><g fill="#fff"><path d="M197.35 152.73l-4.97 5-7.23 7.18-6.95 7-7.19 7.23-6.99 7-7.19 7.23-6.95 6.95-7.23 7.28-14.19 14.19-8.37 8.41c-1.77 1.78-2.77 4.18-2.77 6.69a9.47 9.47 0 0 0 2.77 6.69l16.74 16.79 1.51-1.52 5.57-5.6-9.63-9.67c-1.78-1.77-2.78-4.18-2.78-6.69s1-4.91 2.78-6.69l8.37-8.41 7.23-7.24 6.95-6.95 7.23-7.28 6.95-6.95 7.19-7.23 6.99-7 7.19-7.23 6.95-7 7.23-7.18m-55.31 220.83V260.37h-14.18v118.19a9.47 9.47 0 0 0 9.45 9.45h14.18c-5.21-.01-9.43-4.23-9.45-9.45h0z"/><path d="M132.34 378.56V260.37h9.45v118.19h-9.45z"/></g><g fill="#428dff"><path d="M135.27 345.09a3.26 3.26 0 0 0 .85.28c.31.05.63.09.95.09 1.25-.01 2.45-.5 3.35-1.37.43-.45.77-.98 1-1.56.71-1.76.32-3.78-1-5.15-.45-.43-.98-.76-1.56-.99a4.83 4.83 0 0 0-1.79-.38c-1.92-.01-3.66 1.14-4.4 2.91-.73 1.78-.32 3.82 1.04 5.17l.71.57a3.77 3.77 0 0 0 .85.43z"/><path d="M321.45 255.64c2.61 0 4.73 2.11 4.73 4.73v118.19c0 7.83-6.35 14.18-14.19 14.18H146.52c-7.83 0-14.18-6.35-14.18-14.18v-18.91c0-2.61 2.12-4.73 4.73-4.73s4.72 2.12 4.72 4.73v18.91c0 2.61 2.12 4.73 4.73 4.73h165.47c2.61 0 4.73-2.12 4.73-4.73v-80.37H141.79v23.64c0 2.61-2.11 4.72-4.72 4.72s-4.73-2.11-4.73-4.72v-59.28l-15.6-15.64c-5.52-5.54-5.52-14.5 0-20.03l12.39-12.44a9.13 9.13 0 0 1 .44-.44l96.63-96.93c.56-.54 1.17-1.04 1.82-1.48.61-.8 1.48-1.38 2.45-1.64.29-.04.58-.06.86-.04 5.18-1.87 10.97-.64 14.95 3.16l16.71 16.78a4.72 4.72 0 0 1 0 6.67l-17.65 17.7a4.59 4.59 0 0 1-2.36 2.39l-11.82 11.87a4.6 4.6 0 0 1-2.27 2.27l-11.94 11.98c-.46.95-1.22 1.71-2.16 2.17l-12.05 12.09a4.67 4.67 0 0 1-2.05 2.05l-12.16 12.2c-.44.83-1.11 1.51-1.94 1.94l-12.29 12.29c-.42.78-1.05 1.41-1.82 1.83l-12.39 12.43a4.6 4.6 0 0 1-1.71 1.71l-10.16 10.2h173.23zm-26.76 33.09l10.14-23.64h-8.63l-10.13 23.64h8.62zm-18.91 0l10.14-23.64h-8.63l-10.13 23.64h8.62zm-18.91 0L267 265.09h-8.62l-10.13 23.64h8.62zm-18.9 0l10.13-23.64h-8.63l-10.13 23.64h8.63zm-18.91 0l10.13-23.64h-8.63l-10.13 23.64h8.63zm-37.83 0l10.13-23.64h-8.62l-10.13 23.64h8.62zm-18.91 0l10.13-23.64h-8.62l-10.14 23.64h8.63zm29.2 0h8.62l10.13-23.64h-8.62l-10.13 23.64zm-53.92-69.39l6.7 26.84 6.39-6.41-6.71-26.83-6.38 6.4zm14.17-14.21l6.72 26.82 6.38-6.4-6.71-26.82-6.39 6.4zm14.19-14.22l6.71 26.83 6.38-6.41-6.7-26.82-6.39 6.4zm14.16-14.22l6.73 26.83 6.39-6.41-6.71-26.83-6.41 6.41zm14.21-14.22l6.71 26.82 6.38-6.4-6.71-26.82-6.38 6.4zm14.13-14.22l6.76 26.83 6.38-6.4-6.7-26.83-6.44 6.4zm31.17-24.52a4.63 4.63 0 0 0-2.07-1.13l6 24.02 9.45-9.45-13.38-13.44zm-16.99 10.3l6.71 26.84 6.38-6.41-6.7-26.83-6.39 6.4zm-99.21 106.2l12.87 12.9-6.5-25.97-6.37 6.39c-1.84 1.85-1.84 4.83 0 6.68zm18.36 48.5h1.62l10.13-23.64h-11.75v23.64zm174.93 0v-23.64h-1.61l-10.13 23.64h11.74zM160.7 369.1c-2.61 0-4.72-2.11-4.72-4.72V317.1a4.75 4.75 0 0 1 2.1-3.94 4.74 4.74 0 0 1 4.44-.42l56.74 23.64a4.72 4.72 0 0 1 0 8.72l-56.74 23.64c-.57.24-1.19.37-1.82.36zm4.73-11.81l39.72-16.55-39.72-16.55v33.1z" fill-rule="evenodd"/><use xlink:href="#B"/><use xlink:href="#B" y="18.91"/><path d="M236.35 354.92h66.19c2.61 0 4.73-2.12 4.73-4.73s-2.12-4.73-4.73-4.73h-66.19c-2.61 0-4.73 2.12-4.73 4.73s2.12 4.73 4.73 4.73zm0 18.91h66.19c2.61 0 4.73-2.11 4.73-4.73 0-2.61-2.12-4.72-4.73-4.72h-66.19c-2.61 0-4.73 2.11-4.73 4.72 0 2.62 2.12 4.73 4.73 4.73h0zm-37.82-250.57c-2.61 0-4.73 2.12-4.73 4.73v4.73c0 2.61 2.12 4.72 4.73 4.72s4.72-2.11 4.72-4.72c2.62 0 4.73-2.12 4.73-4.73s-2.11-4.73-4.73-4.73h-4.72zm189.11 0h-118.2c-2.61 0-4.72 2.12-4.72 4.73s2.11 4.73 4.72 4.73h113.47V284h-42.55c-2.61 0-4.73 2.12-4.73 4.73s2.12 4.73 4.73 4.73h47.28c2.61 0 4.73-2.12 4.73-4.73V127.99c0-2.61-2.12-4.73-4.73-4.73h0zM193.8 217.82v23.64c0 2.61 2.12 4.72 4.73 4.72s4.72-2.11 4.72-4.72v-23.64a4.72 4.72 0 0 0-4.72-4.73c-2.61 0-4.73 2.11-4.73 4.73zm94.56-70.92c0-2.61-2.12-4.73-4.73-4.73h-14.19c-2.61 0-4.72 2.12-4.72 4.73s2.11 4.73 4.72 4.73h9.46v42.55h-61.46c-2.61 0-4.73 2.11-4.73 4.73 0 2.61 2.12 4.72 4.73 4.72h66.19c2.61 0 4.73-2.11 4.73-4.72V146.9z"/><path fill-rule="evenodd" d="M297.81 198.91V146.9c0-2.61 2.12-4.73 4.73-4.73h66.19c2.61 0 4.72 2.12 4.72 4.73v52.01c0 2.61-2.11 4.72-4.72 4.72h-66.19c-2.61 0-4.73-2.11-4.73-4.72zm9.46-4.73H364v-42.55h-56.73v42.55z"/><path d="M283.63 246.18c2.61 0 4.73-2.11 4.73-4.72v-23.64c0-2.62-2.12-4.73-4.73-4.73h-66.19c-2.61 0-4.73 2.11-4.73 4.73v23.64c0 2.61 2.12 4.72 4.73 4.72s4.73-2.11 4.73-4.72v-18.92h56.73v18.92c0 2.61 2.12 4.72 4.73 4.72zm14.18-4.72c0 2.61 2.12 4.72 4.73 4.72s4.73-2.11 4.73-4.72v-18.92H364v42.55h-23.64c-2.61 0-4.73 2.12-4.73 4.73s2.12 4.73 4.73 4.73h28.37c2.61 0 4.72-2.12 4.72-4.73v-52a4.72 4.72 0 0 0-4.72-4.73h-66.19c-2.61 0-4.73 2.11-4.73 4.73v23.64z"/></g><defs ><path id="B" d="M236.35 317.1h66.19c2.61 0 4.73-2.12 4.73-4.73s-2.12-4.73-4.73-4.73h-66.19c-2.61 0-4.73 2.12-4.73 4.73s2.12 4.73 4.73 4.73h0z"/></defs></svg>