<?xml version="1.0" encoding="utf-8"?>
<!-- Generator: Adobe Illustrator 16.0.3, SVG Export Plug-In . SVG Version: 6.00 Build 0)  -->
<!DOCTYPE svg PUBLIC "-//W3C//DTD SVG 1.1//EN" "http://www.w3.org/Graphics/SVG/1.1/DTD/svg11.dtd">
<svg version="1.1" id="Capa_1" xmlns="http://www.w3.org/2000/svg" xmlns:xlink="http://www.w3.org/1999/xlink" x="0px" y="0px"
	 width="958px" height="434px" viewBox="0 0 958 434" enable-background="new 0 0 958 434" xml:space="preserve">
<g>
	<path fill-rule="evenodd" clip-rule="evenodd" fill="#FEFEFE" d="M477,453c-169.167,0-338.333-0.015-507.5,0.094
		c-3.75,0.002-4.597-0.845-4.594-4.594c0.11-153,0.11-306,0-459c-0.003-3.749,0.845-4.594,4.594-4.593
		c338.333,0.1,676.667,0.1,1015,0c3.749-0.001,4.597,0.844,4.594,4.593c-0.109,153-0.109,306,0,459
		c0.003,3.749-0.845,4.597-4.594,4.594C815.333,452.985,646.167,453,477,453z"/>
	<path fill-rule="evenodd" clip-rule="evenodd" fill="#FE0000" d="M177.415,207.479c-12.35,9.871-24.37,19.59-36.507,29.158
		c-26.684,21.038-53.416,42.015-80.154,62.983c-7.691,6.03-16.088,10.04-26.258,8.539c-10.082-1.488-16.293-10.401-14.087-20.327
		c1.826-8.22,6.797-14.305,13.305-19.321c39.713-30.609,79.054-61.69,118.001-93.27c9.125-7.399,9.274-7.396,4.178-17.906
		c-10.293-21.229-21.371-42.078-30.522-63.86c-2.908-6.922-6.919-13.273-12.02-18.87c-5.306-5.822-6.117-12.663-3.133-19.548
		c5.474-12.629,15.263-20.329,28.855-22.861c6.771-1.261,12.413,1.461,17.328,5.88c8.311,7.473,14.628,16.434,18.677,26.811
		c8.841,22.657,20.848,43.795,31.341,66.398c2.359-2.12,4.508-4.066,6.673-5.994c26.625-23.711,52.104-48.715,80.042-70.941
		c8.601-6.842,17.321-13.538,27.033-18.786c3.073-1.661,6.199-3.271,9.776-3.535c13.29-0.984,22.01,10.683,17.629,23.625
		c-2.095,6.19-6.101,11.082-11.12,15.077c-38.643,30.758-73.11,66.206-110.576,98.28c-2.026,1.735-2.147,3.174-1.217,5.563
		c12.727,32.653,23.665,66.044,40.335,97.062c3.261,6.068,2.839,12.312-0.167,18.236c-5.882,11.593-15.475,18.536-28.192,20.91
		c-8.084,1.509-14.212-2.334-19.204-8.263c-7.849-9.32-12.621-20.314-16.457-31.692c-6.743-20.003-13.674-39.928-21.868-59.392
		C178.607,210.252,178.097,209.075,177.415,207.479z"/>
	<path fill-rule="evenodd" clip-rule="evenodd" d="M680.634,256.291c-4.692,13.736-9.271,27.082-13.795,40.446
		c-0.528,1.561-1.473,2.453-2.984,3.016c-32.294,12-65.382,16.956-99.482,10.01c-19.137-3.898-35.138-12.821-42.035-32.648
		c-4.231-12.164-3.432-24.68-0.351-36.962c11.15-44.449,35.858-77.973,79.297-95.367c23.598-9.448,48.249-11.306,72.979-4.701
		c19.195,5.127,29.213,18.847,29.921,38.713c0.533,14.96-3.66,28.934-8.473,42.801c-1.521,4.381-2.041,10.345-5.167,12.583
		c-3.117,2.232-8.93,0.799-13.56,0.804c-32.326,0.029-64.653,0.1-96.978-0.096c-3.866-0.023-5.025,1.331-5.747,4.764
		c-4.446,21.162,6.363,33.603,30.315,35.377c24.385,1.807,46.212-5.793,67.137-17.192
		C675.43,255.812,675.426,255.804,680.634,256.291z"/>
	<path fill-rule="evenodd" clip-rule="evenodd" d="M311.92,308.116c11.974-34.888,23.708-69.111,35.468-103.325
		c6.801-19.784,13.652-39.552,20.461-59.333c0.64-1.859,0.805-3.761,3.683-3.741c16.477,0.115,32.954,0.057,50.059,0.057
		c-1.958,5.921-3.754,11.352-5.941,17.967c2.973-1.802,4.99-3.06,7.042-4.261c14.246-8.338,28.64-16.274,45.521-17.99
		c7.532-0.765,14.966-0.5,22.304,1.412c13.794,3.594,21.689,13.372,22.475,27.6c0.607,11.01-1.771,21.54-5.278,31.813
		c-12.069,35.354-24.346,70.64-36.408,105.997c-0.951,2.787-1.985,3.931-5.121,3.89c-14.828-0.191-29.662-0.224-44.489,0.002
		c-4.245,0.064-4.009-1.234-2.88-4.518c10.32-29.988,20.509-60.022,30.653-90.071c1.914-5.669,3.321-11.499,4.197-17.431
		c1.321-8.938-2.483-13.945-11.385-15.345c-13.291-2.091-24.83,2.812-36.108,8.856c-1.703,0.912-1.792,2.671-2.319,4.201
		c-12.604,36.575-25.241,73.14-37.73,109.754c-1.107,3.244-2.372,4.64-6.118,4.577C344.188,307.964,328.366,308.116,311.92,308.116z
		"/>
	<path fill-rule="evenodd" clip-rule="evenodd" d="M815.768,270.522c-3.95,11.486-7.885,22.771-11.674,34.105
		c-0.571,1.706-1.503,2.318-3.115,2.666c-20.866,4.497-41.939,6.32-62.959,2.104c-21.295-4.271-29.082-16.898-24.577-38.425
		c3.824-18.269,11.322-35.406,17.118-53.067c4.339-13.222,9.004-26.335,13.688-39.976c-5.967,0-11.43-0.1-16.886,0.046
		c-2.426,0.065-2.893-0.793-2.16-2.897c3.603-10.351,7.233-20.692,10.711-31.085c0.611-1.825,1.598-2.304,3.282-2.233
		c1.497,0.063,3.001,0.066,4.498,0.002c4.301-0.188,9.688,1.727,12.605-0.745c2.855-2.42,3.287-7.737,4.7-11.813
		c3.698-10.668,7.395-21.337,10.985-32.041c0.703-2.097,1.446-3.257,4.046-3.234C792.352,94.07,808.673,94,825.671,94
		c-2.101,6.25-4.055,12.141-6.061,18.013c-2.951,8.643-5.819,17.316-8.976,25.884c-1.148,3.12-0.686,3.977,2.74,3.939
		c14.329-0.153,28.662,0.021,42.991-0.132c3.095-0.033,3.594,0.713,2.588,3.538c-3.511,9.854-6.917,19.748-10.186,29.685
		c-0.833,2.53-2.194,3.087-4.694,3.064c-14.33-0.125-28.662,0.041-42.99-0.139c-3.191-0.041-4.556,0.894-5.592,3.983
		c-7.652,22.825-15.554,45.567-23.331,68.352c-1.345,3.938-2.412,7.939-2.308,12.192c0.161,6.552,2.758,10.127,9.228,11.811
		c9.941,2.587,19.46,0.207,28.887-2.791C810.335,270.646,812.628,269.535,815.768,270.522z"/>
	<path fill-rule="evenodd" clip-rule="evenodd" fill="#333333" d="M872.921,81.047c0.03-17.053,13.363-30.326,30.474-30.339
		c17.265-0.014,30.706,13.493,30.604,30.754c-0.099,16.751-13.986,30.402-30.772,30.248
		C886.315,111.556,872.891,97.972,872.921,81.047z"/>
	<path fill-rule="evenodd" clip-rule="evenodd" d="M489.999,378.575c0.081-11.671,7.871-19.576,19.285-19.57
		c10.811,0.006,18.552,8.001,18.534,19.142c-0.02,11.811-8.112,20.021-19.57,19.853C497.45,397.842,489.922,389.828,489.999,378.575
		z"/>
	<path fill-rule="evenodd" clip-rule="evenodd" d="M666,378.327c0.189-11.634,8.121-19.478,19.532-19.316
		c10.798,0.152,18.492,8.309,18.286,19.384c-0.222,11.862-8.356,19.909-19.818,19.604C673.229,397.711,665.816,389.611,666,378.327z
		"/>
	<path fill-rule="evenodd" clip-rule="evenodd" d="M817.999,378.723c0.021-11.688,7.738-19.641,19.138-19.717
		c10.805-0.073,18.59,7.842,18.682,18.993c0.097,11.791-7.961,20.088-19.423,20.001C825.572,397.918,817.98,389.962,817.999,378.723
		z"/>
	<path fill-rule="evenodd" clip-rule="evenodd" d="M591.013,384.06c0,2.83,0.175,5.677-0.071,8.486
		c-0.129,1.478,1.837,4.212-1.163,4.263c-2.29,0.039-5.7,2.268-7.047-1.881c-0.742-2.284-1.69-0.518-2.388-0.025
		c-2.796,1.97-5.797,3.193-9.281,3.104c-5.246-0.133-9.707-3.267-11.011-7.805c-1.443-5.025,0.349-10.267,4.615-13.214
		c3.972-2.743,8.569-3.413,13.231-3.942c1.179-0.134,3.08,0.77,3.459-0.922c0.402-1.798-0.36-3.657-1.998-4.808
		c-3.508-2.462-7.247-1.569-11.02-0.723c-1.799,0.403-3.882,3.149-5.294-0.998c-1.375-4.036,1.211-4.535,3.719-5.279
		c3.034-0.9,6.14-1.415,9.35-1.338c8.854,0.216,13.991,4.776,14.731,13.6c0.319,3.802,0.054,7.652,0.054,11.481
		C590.938,384.06,590.975,384.06,591.013,384.06z"/>
	<path fill-rule="evenodd" clip-rule="evenodd" d="M871.489,364.656c1.513-1.2,2.702-2.317,4.052-3.186
		c8.764-5.642,19.164-1.326,20.934,9.005c1.381,8.066,0.553,16.296,0.411,24.438c-0.074,4.302-3.849,1.405-5.837,1.985
		c-1.614,0.471-3.646,0.649-3.541-2.428c0.198-5.824,0.05-11.66,0.059-17.491c0.004-2.52-0.131-5.028-1.495-7.234
		c-1.688-2.729-4.193-3.635-7.289-2.916c-4.172,0.968-6.185,3.842-6.296,7.895c-0.172,6.326-0.287,12.672,0.026,18.987
		c0.244,4.919-3.149,3.005-5.336,3.248c-2.315,0.257-4.401,0.553-4.282-3.288c0.312-9.986,0.089-19.988,0.115-29.984
		c0.004-1.588-1.167-4.203,2.13-3.613c2.197,0.394,6.177-2.246,6.028,3.008C871.156,363.494,871.331,363.912,871.489,364.656z"/>
	<path fill-rule="evenodd" clip-rule="evenodd" d="M755.788,392.248c-2.581,2.384-4.892,4.395-8.102,5.196
		c-7.54,1.885-13.973-1.427-15.743-8.934c-2.085-8.838-0.951-17.909-0.729-26.846c0.086-3.465,4.032-1.038,6.142-1.597
		c1.654-0.438,3.213-0.239,3.128,2.368c-0.169,5.151-0.054,10.313-0.043,15.471c0.003,1.496-0.064,3.005,0.104,4.485
		c0.62,5.445,3.065,8.236,6.984,8.114c4.329-0.134,7.398-3.725,7.455-8.916c0.066-6.155,0.257-12.324-0.07-18.463
		c-0.216-4.043,2.341-3.286,4.452-3.06c1.987,0.214,5.186-1.771,5.141,2.899c-0.103,10.636,0.15,21.276,0.324,31.914
		c0.024,1.487-0.501,2.4-1.931,2.062c-2.188-0.519-5.088,1.669-6.537-1.58C755.995,394.538,756.013,393.541,755.788,392.248z"/>
	<path fill-rule="evenodd" clip-rule="evenodd" d="M468,375.06c-0.001-5.986-0.125-11.977,0.058-17.957
		c0.078-2.585-0.64-3.591-3.297-3.326c-2.141,0.212-4.318,0.05-6.48,0.041c-4.465-0.02-5.914-2.153-4.742-6.458
		c0.484-1.775,1.648-1.333,2.67-1.336c11.141-0.036,22.282,0.07,33.421-0.084c3.015-0.042,2.734,1.733,2.507,3.504
		c-0.212,1.653,1.31,4.359-2.224,4.371c-0.499,0.002-0.998-0.006-1.496,0.006c-10.979,0.26-10.979,0.261-10.979,11.152
		c0,9.478-0.265,18.966,0.113,28.429c0.185,4.626-2.575,3.556-5.042,3.592c-2.401,0.035-4.928,0.808-4.62-3.485
		C468.327,387.387,468,381.211,468,375.06z"/>
	<path fill-rule="evenodd" clip-rule="evenodd" fill="#010101" d="M645.276,397.989c-2.38,0.194-4.783-0.525-7.236-0.953
		c-3.381-0.59-4.01-2.126-3.146-5.491c1.025-3.994,3.13-1.796,4.778-1.277c1.943,0.61,3.867,0.912,5.868,0.904
		c2.471-0.01,4.801-0.47,5.36-3.344c0.55-2.824-1.4-4.224-3.604-5.287c-2.382-1.149-4.947-1.996-7.162-3.4
		c-6.849-4.342-6.876-13.394-0.047-17.728c5.162-3.275,10.731-2.989,16.296-1.087c3.059,1.045,1.223,3.142,0.963,4.937
		c-0.311,2.136-1.444,2.299-3.112,1.54c-0.302-0.138-0.601-0.322-0.919-0.378c-3.388-0.592-7.586-2.138-9.037,2.27
		c-1.374,4.17,3.088,4.721,5.723,6.129c1.604,0.857,3.363,1.449,4.895,2.412c3.703,2.326,5.449,5.819,5.045,10.139
		c-0.404,4.303-2.759,7.406-6.754,9.134C650.726,397.573,648.127,398.098,645.276,397.989z"/>
	<path fill-rule="evenodd" clip-rule="evenodd" fill="#010101" d="M915.504,398.147c-1.697-0.299-3.969-0.76-6.26-1.091
		c-3.664-0.528-4.334-2.402-3.249-5.795c0.764-2.389,1.726-2.212,3.557-1.412c1.97,0.86,4.078,1.368,6.286,1.34
		c2.575-0.034,5.256-0.078,6.021-3.164c0.759-3.063-1.476-4.508-3.816-5.629c-1.94-0.929-4.02-1.583-5.907-2.601
		c-3.93-2.12-6.525-5.259-6.068-9.982c0.478-4.93,3.306-8.181,7.954-9.833c3.893-1.385,7.774-1.164,11.749-0.167
		c2.794,0.7,3.738,1.692,2.906,4.815c-0.912,3.431-2.488,2.52-4.646,1.717c-1.206-0.45-2.608-0.452-3.928-0.501
		c-2.324-0.086-4.399,0.511-5.004,3.09c-0.57,2.434,1.159,3.651,2.993,4.587c1.62,0.825,3.354,1.426,4.999,2.204
		c5.903,2.794,8.497,6.763,7.858,11.944c-0.648,5.265-4.604,8.954-10.849,10.042C918.798,397.938,917.461,397.969,915.504,398.147z"
		/>
	<path fill-rule="evenodd" clip-rule="evenodd" d="M536.817,378.432c0-2.162,0.022-4.324-0.006-6.486
		c-0.032-2.503,0.911-5.529-3.644-5.047c-2.453,0.26-1.558-2.092-1.53-3.33c0.027-1.241-1.008-3.624,1.398-3.438
		c3.724,0.287,3.944-1.584,3.83-4.437c-0.135-3.373,4.864-6.927,8.089-5.838c2.016,0.681,1.126,2.611,0.958,3.781
		c-0.716,5.006,0.867,7.437,6.216,6.363c3.309-0.664,2.78,1.624,2.906,3.611c0.148,2.353-0.248,3.988-3.132,3.383
		c-5.209-1.094-6.51,1.283-5.985,6.096c0.411,3.781,0.052,7.643,0.094,11.468c0.04,3.697,1.56,6.225,5.642,5.86
		c1.845-0.165,3.065-0.144,2.744,2.04c-0.257,1.747,1.152,3.944-1.714,5.046c-7.12,2.738-14.749-1.517-15.593-9.109
		c-0.365-3.282-0.062-6.64-0.062-9.963C536.959,378.432,536.889,378.432,536.817,378.432z"/>
	<path fill-rule="evenodd" clip-rule="evenodd" d="M775.817,378.485c0-2.329-0.054-4.659,0.015-6.985
		c0.075-2.567,0.461-4.966-3.611-4.619c-2.76,0.234-1.438-2.395-1.595-3.767c-0.152-1.321-0.642-3.412,1.857-3.069
		c3.815,0.524,3.345-1.947,3.351-4.297c0.009-3.456,4.716-6.922,8.069-5.901c2.085,0.635,1.171,2.581,1.01,3.736
		c-0.69,4.935,0.716,7.527,6.163,6.417c3.215-0.655,2.889,1.498,2.96,3.559c0.077,2.258-0.089,4.053-3.08,3.44
		c-5.077-1.039-6.613,1.094-6.047,6.039c0.452,3.94,0.015,7.976,0.121,11.965c0.095,3.524,1.821,5.759,5.571,5.432
		c1.776-0.155,3.081-0.29,2.805,1.973c-0.231,1.897,1.146,4.281-2.151,5.233c-8.006,2.312-14.574-1.886-15.254-10.185
		c-0.243-2.972-0.039-5.979-0.039-8.971C775.914,378.485,775.866,378.485,775.817,378.485z"/>
	<path fill-rule="evenodd" clip-rule="evenodd" d="M610.436,370.194c0,7.818-0.229,15.646,0.091,23.452
		c0.175,4.27-2.47,3.39-4.769,3.32c-2.176-0.065-4.928,1.264-4.856-3.208c0.254-15.799,0.24-31.607-0.005-47.406
		c-0.058-3.771,1.892-3.617,4.244-3.309c2.151,0.282,5.553-1.755,5.372,3.198C610.223,354.217,610.435,362.21,610.436,370.194z"/>
	<path fill-rule="evenodd" clip-rule="evenodd" d="M720.435,370.022c0,7.985-0.188,15.977,0.071,23.953
		c0.153,4.688-3.082,2.781-5.083,2.952c-2.053,0.176-4.566,1.093-4.511-2.997c0.216-15.967,0.208-31.939,0.014-47.907
		c-0.057-4.636,3.041-2.804,5.053-2.955c2.064-0.156,4.678-1.075,4.537,3.002C720.24,354.046,720.435,362.038,720.435,370.022z"/>
	<path fill-rule="evenodd" clip-rule="evenodd" d="M810.435,379.002c0,4.987-0.219,9.986,0.063,14.958
		c0.267,4.682-3.048,2.813-5.055,2.967c-2.033,0.157-4.633,1.142-4.529-2.972c0.261-10.301,0.26-20.616,0.001-30.916
		c-0.104-4.119,2.507-3.117,4.534-2.966c2.01,0.149,5.306-1.707,5.052,2.974C810.214,368.351,810.435,373.683,810.435,379.002z"/>
	<path fill-rule="evenodd" clip-rule="evenodd" fill="#030303" d="M806.367,354.181c-3.494-0.079-5.586-1.521-5.732-4.707
		c-0.155-3.378,1.813-5.376,5.148-5.397c3.089-0.021,5.028,1.882,5.14,4.969C811.038,352.228,808.985,353.757,806.367,354.181z"/>
	<path fill-rule="evenodd" clip-rule="evenodd" fill="#FEFEFE" d="M618.527,203.699c-9.488,0-18.979-0.08-28.465,0.047
		c-3.038,0.04-3.758-0.51-2.442-3.6c8.531-20.037,26.958-31.675,48.171-30.194c11.635,0.812,17.395,7.113,17.197,18.815
		c-0.002,0.166-0.009,0.333-0.014,0.499c-0.4,13.458-1.378,14.433-14.473,14.433C631.844,203.699,625.186,203.699,618.527,203.699z"
		/>
	<path fill-rule="evenodd" clip-rule="evenodd" fill="#FEFEFE" d="M903.34,105.033c-13.146-0.028-23.581-10.589-23.596-23.88
		c-0.015-13.19,10.525-23.953,23.535-24.033c13.204-0.082,23.925,10.808,23.851,24.226
		C927.057,94.589,916.539,105.062,903.34,105.033z"/>
	<path fill-rule="evenodd" clip-rule="evenodd" fill="#FDFDFD" d="M499.827,377.757c-0.064-2.551,0.514-4.985,1.676-7.22
		c1.576-3.032,4.043-4.806,7.611-4.709c3.337,0.091,5.654,1.768,7.079,4.693c2.394,4.916,2.527,9.952,0.408,14.975
		c-1.464,3.47-3.885,5.803-7.968,5.674c-4.05-0.127-6.276-2.569-7.708-6.063C499.954,382.735,499.741,380.273,499.827,377.757z"/>
	<path fill-rule="evenodd" clip-rule="evenodd" fill="#FDFDFD" d="M675.779,377.777c0.123-0.931,0.158-2.625,0.597-4.209
		c1.19-4.31,3.426-7.711,8.485-7.711c5.036,0.001,7.269,3.307,8.488,7.669c1.068,3.819,0.975,7.608-0.449,11.282
		c-1.405,3.626-3.66,6.398-8.015,6.355c-4.53-0.045-6.807-2.826-8.207-6.763C675.991,382.468,675.844,380.511,675.779,377.777z"/>
	<path fill-rule="evenodd" clip-rule="evenodd" fill="#FDFDFD" d="M827.55,378.461c0.239-2.231,0.538-4.341,1.314-6.41
		c1.422-3.784,3.852-6.212,8.095-6.206c4.287,0.005,6.666,2.607,7.991,6.341c1.438,4.047,1.56,8.169,0.077,12.242
		c-1.402,3.849-3.648,6.801-8.238,6.731c-4.535-0.067-6.897-2.88-8.087-6.868C828.139,382.401,827.923,380.408,827.55,378.461z"/>
	<path fill-rule="evenodd" clip-rule="evenodd" fill="#F9F9F9" d="M581.826,382.893c-0.084,5.137-3.281,8.541-7.826,8.286
		c-3.462-0.193-5.107-2.14-4.988-5.527c0.141-4.022,4.479-6.632,10.15-6.728C582.605,378.865,581.74,381.045,581.826,382.893z"/>
	<path fill-rule="evenodd" clip-rule="evenodd" fill="#343434" d="M920.225,95.139c-6.783,1.879-11.124-0.145-14.162-5.401
		c-0.9-1.559-2.276-2.846-3.461-4.234c-0.685-0.802-1.559-1.273-2.638-0.999c-1.346,0.342-1.022,1.508-1.06,2.436
		c-0.053,1.326-0.09,2.661,0.001,3.983c0.196,2.867,0.226,4.946-3.929,4.949c-4.222,0.004-3.924-2.194-3.894-4.998
		c0.081-7.47,0.124-14.944-0.024-22.413c-0.051-2.603,0.743-3.536,3.383-3.396c4.141,0.219,8.314-0.09,12.442,0.233
		c3.974,0.311,7.635,1.748,8.776,6.099c1.087,4.139-0.355,7.593-4.105,9.76c-2.138,1.235-1.681,2.21-0.322,3.697
		C914.211,88.113,917.055,91.496,920.225,95.139z"/>
	<path fill-rule="evenodd" clip-rule="evenodd" fill="#FDFDFD" d="M898.863,75.04c0.157-2.302-0.816-4.944,2.912-4.472
		c2.641,0.334,5.717,0.208,5.652,3.912c-0.064,3.627-2.93,4.208-5.913,4.505C897.471,79.387,899.461,76.294,898.863,75.04z"/>
</g>
</svg>
