<svg xmlns="http://www.w3.org/2000/svg" width="958" height="434" fill-rule="evenodd" xmlns:v="https://vecta.io/nano"><path fill="#fefefe" d="M477 453c-169.167 0-338.333-.015-507.5.094-3.75.002-4.597-.845-4.594-4.594v-459c-.003-3.749.845-4.594 4.594-4.593h1015c3.749-.001 4.597.844 4.594 4.593v459c.003 3.749-.845 4.597-4.594 4.594L477 453z"/><path fill="#fe0000" d="M177.415 207.479l-36.507 29.158-80.154 62.983c-7.691 6.03-16.088 10.04-26.258 8.539-10.082-1.488-16.293-10.401-14.087-20.327 1.826-8.22 6.797-14.305 13.305-19.321l118.001-93.27c9.125-7.399 9.274-7.396 4.178-17.906-10.293-21.229-21.371-42.078-30.522-63.86-2.908-6.922-6.919-13.273-12.02-18.87-5.306-5.822-6.117-12.663-3.133-19.548 5.474-12.629 15.263-20.329 28.855-22.861 6.771-1.261 12.413 1.461 17.328 5.88 8.311 7.473 14.628 16.434 18.677 26.811 8.841 22.657 20.848 43.795 31.341 66.398l6.673-5.994c26.625-23.711 52.104-48.715 80.042-70.941 8.601-6.842 17.321-13.538 27.033-18.786 3.073-1.661 6.199-3.271 9.776-3.535 13.29-.984 22.01 10.683 17.629 23.625-2.095 6.19-6.101 11.082-11.12 15.077-38.643 30.758-73.11 66.206-110.576 98.28-2.026 1.735-2.147 3.174-1.217 5.563 12.727 32.653 23.665 66.044 40.335 97.062 3.261 6.068 2.839 12.312-.167 18.236-5.882 11.593-15.475 18.536-28.192 20.91-8.084 1.509-14.212-2.334-19.204-8.263-7.849-9.32-12.621-20.314-16.457-31.692-6.743-20.003-13.674-39.928-21.868-59.392l-1.691-3.956z"/><path d="M680.634 256.291l-13.795 40.446c-.528 1.561-1.473 2.453-2.984 3.016-32.294 12-65.382 16.956-99.482 10.01-19.137-3.898-35.138-12.821-42.035-32.648-4.231-12.164-3.432-24.68-.351-36.962 11.15-44.449 35.858-77.973 79.297-95.367 23.598-9.448 48.249-11.306 72.979-4.701 19.195 5.127 29.213 18.847 29.921 38.713.533 14.96-3.66 28.934-8.473 42.801-1.521 4.381-2.041 10.345-5.167 12.583-3.117 2.232-8.93.799-13.56.804-32.326.029-64.653.1-96.978-.096-3.866-.023-5.025 1.331-5.747 4.764-4.446 21.162 6.363 33.603 30.315 35.377 24.385 1.807 46.212-5.793 67.137-17.192 3.719-2.027 3.715-2.035 8.923-1.548zM311.92 308.116l35.468-103.325 20.461-59.333c.64-1.859.805-3.761 3.683-3.741l50.059.057-5.941 17.967 7.042-4.261c14.246-8.338 28.64-16.274 45.521-17.99 7.532-.765 14.966-.5 22.304 1.412 13.794 3.594 21.689 13.372 22.475 27.6.607 11.01-1.771 21.54-5.278 31.813l-36.408 105.997c-.951 2.787-1.985 3.931-5.121 3.89-14.828-.191-29.662-.224-44.489.002-4.245.064-4.009-1.234-2.88-4.518l30.653-90.071c1.914-5.669 3.321-11.499 4.197-17.431 1.321-8.938-2.483-13.945-11.385-15.345-13.291-2.091-24.83 2.812-36.108 8.856-1.703.912-1.792 2.671-2.319 4.201l-37.73 109.754c-1.107 3.244-2.372 4.64-6.118 4.577l-48.086-.111zm503.848-37.594l-11.674 34.105c-.571 1.706-1.503 2.318-3.115 2.666-20.866 4.497-41.939 6.32-62.959 2.104-21.295-4.271-29.082-16.898-24.577-38.425 3.824-18.269 11.322-35.406 17.118-53.067l13.688-39.976c-5.967 0-11.43-.1-16.886.046-2.426.065-2.893-.793-2.16-2.897l10.711-31.085c.611-1.825 1.598-2.304 3.282-2.233 1.497.063 3.001.066 4.498.002 4.301-.188 9.688 1.727 12.605-.745 2.855-2.42 3.287-7.737 4.7-11.813l10.985-32.041c.703-2.097 1.446-3.257 4.046-3.234l49.641.071-6.061 18.013-8.976 25.884c-1.148 3.12-.686 3.977 2.74 3.939l42.991-.132c3.095-.033 3.594.713 2.588 3.538l-10.186 29.685c-.833 2.53-2.194 3.087-4.694 3.064-14.33-.125-28.662.041-42.99-.139-3.191-.041-4.556.894-5.592 3.983l-23.331 68.352c-1.345 3.938-2.412 7.939-2.308 12.192.161 6.552 2.758 10.127 9.228 11.811 9.941 2.587 19.46.207 28.887-2.791 2.368-.753 4.661-1.864 7.801-.877z"/><path fill="#333" d="M872.921 81.047c.03-17.053 13.363-30.326 30.474-30.339 17.265-.014 30.706 13.493 30.604 30.754-.099 16.751-13.986 30.402-30.772 30.248-16.912-.154-30.336-13.738-30.306-30.663z"/><path d="M489.999 378.575c.081-11.671 7.871-19.576 19.285-19.57 10.811.006 18.552 8.001 18.534 19.142-.02 11.811-8.112 20.021-19.57 19.853-10.798-.158-18.326-8.172-18.249-19.425zM666 378.327c.189-11.634 8.121-19.478 19.532-19.316 10.798.152 18.492 8.309 18.286 19.384-.222 11.862-8.356 19.909-19.818 19.604-10.771-.288-18.184-8.388-18-19.672zm151.999.396c.021-11.688 7.738-19.641 19.138-19.717 10.805-.073 18.59 7.842 18.682 18.993.097 11.791-7.961 20.088-19.423 20.001-10.824-.082-18.416-8.038-18.397-19.277zm-226.986 5.337l-.071 8.486c-.129 1.478 1.837 4.212-1.163 4.263-2.29.039-5.7 2.268-7.047-1.881-.742-2.284-1.69-.518-2.388-.025-2.796 1.97-5.797 3.193-9.281 3.104-5.246-.133-9.707-3.267-11.011-7.805-1.443-5.025.349-10.267 4.615-13.214 3.972-2.743 8.569-3.413 13.231-3.942 1.179-.134 3.08.77 3.459-.922.402-1.798-.36-3.657-1.998-4.808-3.508-2.462-7.247-1.569-11.02-.723-1.799.403-3.882 3.149-5.294-.998-1.375-4.036 1.211-4.535 3.719-5.279 3.034-.9 6.14-1.415 9.35-1.338 8.854.216 13.991 4.776 14.731 13.6.319 3.802.054 7.652.054 11.481a4.37 4.37 0 0 0 .114.001zm280.476-19.404l4.052-3.186c8.764-5.642 19.164-1.326 20.934 9.005 1.381 8.066.553 16.296.411 24.438-.074 4.302-3.849 1.405-5.837 1.985-1.614.471-3.646.649-3.541-2.428.198-5.824.05-11.66.059-17.491.004-2.52-.131-5.028-1.495-7.234-1.688-2.729-4.193-3.635-7.289-2.916-4.172.968-6.185 3.842-6.296 7.895-.172 6.326-.287 12.672.026 18.987.244 4.919-3.149 3.005-5.336 3.248-2.315.257-4.401.553-4.282-3.288.312-9.986.089-19.988.115-29.984.004-1.588-1.167-4.203 2.13-3.613 2.197.394 6.177-2.246 6.028 3.008-.012.412.163.83.321 1.574zm-115.701 27.592c-2.581 2.384-4.892 4.395-8.102 5.196-7.54 1.885-13.973-1.427-15.743-8.934-2.085-8.838-.951-17.909-.729-26.846.086-3.465 4.032-1.038 6.142-1.597 1.654-.438 3.213-.239 3.128 2.368-.169 5.151-.054 10.313-.043 15.471.003 1.496-.064 3.005.104 4.485.62 5.445 3.065 8.236 6.984 8.114 4.329-.134 7.398-3.725 7.455-8.916.066-6.155.257-12.324-.07-18.463-.216-4.043 2.341-3.286 4.452-3.06 1.987.214 5.186-1.771 5.141 2.899-.103 10.636.15 21.276.324 31.914.024 1.487-.501 2.4-1.931 2.062-2.188-.519-5.088 1.669-6.537-1.58-.368-.823-.35-1.82-.575-3.113zM468 375.06l.058-17.957c.078-2.585-.64-3.591-3.297-3.326-2.141.212-4.318.05-6.48.041-4.465-.02-5.914-2.153-4.742-6.458.484-1.775 1.648-1.333 2.67-1.336l33.421-.084c3.015-.042 2.734 1.733 2.507 3.504-.212 1.653 1.31 4.359-2.224 4.371-.499.002-.998-.006-1.496.006-10.979.26-10.979.261-10.979 11.152 0 9.478-.265 18.966.113 28.429.185 4.626-2.575 3.556-5.042 3.592-2.401.035-4.928.808-4.62-3.485.438-6.122.111-12.298.111-18.449z"/><path d="M645.276 397.989c-2.38.194-4.783-.525-7.236-.953-3.381-.59-4.01-2.126-3.146-5.491 1.025-3.994 3.13-1.796 4.778-1.277 1.943.61 3.867.912 5.868.904 2.471-.01 4.801-.47 5.36-3.344.55-2.824-1.4-4.224-3.604-5.287-2.382-1.149-4.947-1.996-7.162-3.4-6.849-4.342-6.876-13.394-.047-17.728 5.162-3.275 10.731-2.989 16.296-1.087 3.059 1.045 1.223 3.142.963 4.937-.311 2.136-1.444 2.299-3.112 1.54-.302-.138-.601-.322-.919-.378-3.388-.592-7.586-2.138-9.037 2.27-1.374 4.17 3.088 4.721 5.723 6.129 1.604.857 3.363 1.449 4.895 2.412 3.703 2.326 5.449 5.819 5.045 10.139-.404 4.303-2.759 7.406-6.754 9.134-2.461 1.064-5.06 1.589-7.911 1.48zm270.228.158l-6.26-1.091c-3.664-.528-4.334-2.402-3.249-5.795.764-2.389 1.726-2.212 3.557-1.412 1.97.86 4.078 1.368 6.286 1.34 2.575-.034 5.256-.078 6.021-3.164.759-3.063-1.476-4.508-3.816-5.629l-5.907-2.601c-3.93-2.12-6.525-5.259-6.068-9.982.478-4.93 3.306-8.181 7.954-9.833 3.893-1.385 7.774-1.164 11.749-.167 2.794.7 3.738 1.692 2.906 4.815-.912 3.431-2.488 2.52-4.646 1.717-1.206-.45-2.608-.452-3.928-.501-2.324-.086-4.399.511-5.004 3.09-.57 2.434 1.159 3.651 2.993 4.587 1.62.825 3.354 1.426 4.999 2.204 5.903 2.794 8.497 6.763 7.858 11.944-.648 5.265-4.604 8.954-10.849 10.042-1.302.227-2.639.258-4.596.436z" fill="#010101"/><path d="M536.817 378.432l-.006-6.486c-.032-2.503.911-5.529-3.644-5.047-2.453.26-1.558-2.092-1.53-3.33s-1.008-3.624 1.398-3.438c3.724.287 3.944-1.584 3.83-4.437-.135-3.373 4.864-6.927 8.089-5.838 2.016.681 1.126 2.611.958 3.781-.716 5.006.867 7.437 6.216 6.363 3.309-.664 2.78 1.624 2.906 3.611.148 2.353-.248 3.988-3.132 3.383-5.209-1.094-6.51 1.283-5.985 6.096.411 3.781.052 7.643.094 11.468.04 3.697 1.56 6.225 5.642 5.86 1.845-.165 3.065-.144 2.744 2.04-.257 1.747 1.152 3.944-1.714 5.046-7.12 2.738-14.749-1.517-15.593-9.109-.365-3.282-.062-6.64-.062-9.963h-.211zm239 .053l.015-6.985c.075-2.567.461-4.966-3.611-4.619-2.76.234-1.438-2.395-1.595-3.767-.152-1.321-.642-3.412 1.857-3.069 3.815.524 3.345-1.947 3.351-4.297.009-3.456 4.716-6.922 8.069-5.901 2.085.635 1.171 2.581 1.01 3.736-.69 4.935.716 7.527 6.163 6.417 3.215-.655 2.889 1.498 2.96 3.559.077 2.258-.089 4.053-3.08 3.44-5.077-1.039-6.613 1.094-6.047 6.039.452 3.94.015 7.976.121 11.965.095 3.524 1.821 5.759 5.571 5.432 1.776-.155 3.081-.29 2.805 1.973-.231 1.897 1.146 4.281-2.151 5.233-8.006 2.312-14.574-1.886-15.254-10.185-.243-2.972-.039-5.979-.039-8.971h-.145zm-165.381-8.291c0 7.818-.229 15.646.091 23.452.175 4.27-2.47 3.39-4.769 3.32-2.176-.065-4.928 1.264-4.856-3.208.254-15.799.24-31.607-.005-47.406-.058-3.771 1.892-3.617 4.244-3.309 2.151.282 5.553-1.755 5.372 3.198-.29 7.976-.078 15.969-.077 23.953zm109.999-.172l.071 23.953c.153 4.688-3.082 2.781-5.083 2.952-2.053.176-4.566 1.093-4.511-2.997l.014-47.907c-.057-4.636 3.041-2.804 5.053-2.955 2.064-.156 4.678-1.075 4.537 3.002-.276 7.976-.081 15.968-.081 23.952zm90 8.98c0 4.987-.219 9.986.063 14.958.267 4.682-3.048 2.813-5.055 2.967-2.033.157-4.633 1.142-4.529-2.972a612.79 612.79 0 0 0 .001-30.916c-.104-4.119 2.507-3.117 4.534-2.966 2.01.149 5.306-1.707 5.052 2.974-.287 5.304-.066 10.636-.066 15.955z"/><path fill="#030303" d="M806.367 354.181c-3.494-.079-5.586-1.521-5.732-4.707-.155-3.378 1.813-5.376 5.148-5.397 3.089-.021 5.028 1.882 5.14 4.969.115 3.182-1.938 4.711-4.556 5.135z"/><path d="M618.527 203.699c-9.488 0-18.979-.08-28.465.047-3.038.04-3.758-.51-2.442-3.6 8.531-20.037 26.958-31.675 48.171-30.194 11.635.812 17.395 7.113 17.197 18.815-.002.166-.009.333-.014.499-.4 13.458-1.378 14.433-14.473 14.433h-19.974zm284.813-98.666c-13.146-.028-23.581-10.589-23.596-23.88-.015-13.19 10.525-23.953 23.535-24.033 13.204-.082 23.925 10.808 23.851 24.226-.073 13.243-10.591 23.716-23.79 23.687z" fill="#fefefe"/><path d="M499.827 377.757c-.064-2.551.514-4.985 1.676-7.22 1.576-3.032 4.043-4.806 7.611-4.709 3.337.091 5.654 1.768 7.079 4.693 2.394 4.916 2.527 9.952.408 14.975-1.464 3.47-3.885 5.803-7.968 5.674-4.05-.127-6.276-2.569-7.708-6.063-.971-2.372-1.184-4.834-1.098-7.35zm175.952.02c.123-.931.158-2.625.597-4.209 1.19-4.31 3.426-7.711 8.485-7.711 5.036.001 7.269 3.307 8.488 7.669 1.068 3.819.975 7.608-.449 11.282-1.405 3.626-3.66 6.398-8.015 6.355-4.53-.045-6.807-2.826-8.207-6.763-.687-1.932-.834-3.889-.899-6.623zm151.771.684c.239-2.231.538-4.341 1.314-6.41 1.422-3.784 3.852-6.212 8.095-6.206 4.287.005 6.666 2.607 7.991 6.341 1.438 4.047 1.56 8.169.077 12.242-1.402 3.849-3.648 6.801-8.238 6.731-4.535-.067-6.897-2.88-8.087-6.868-.563-1.89-.779-3.883-1.152-5.83z" fill="#fdfdfd"/><path fill="#f9f9f9" d="M581.826 382.893c-.084 5.137-3.281 8.541-7.826 8.286-3.462-.193-5.107-2.14-4.988-5.527.141-4.022 4.479-6.632 10.15-6.728 3.443-.059 2.578 2.121 2.664 3.969z"/><path fill="#343434" d="M920.225 95.139c-6.783 1.879-11.124-.145-14.162-5.401-.9-1.559-2.276-2.846-3.461-4.234-.685-.802-1.559-1.273-2.638-.999-1.346.342-1.022 1.508-1.06 2.436-.053 1.326-.09 2.661.001 3.983.196 2.867.226 4.946-3.929 4.949-4.222.004-3.924-2.194-3.894-4.998l-.024-22.413c-.051-2.603.743-3.536 3.383-3.396 4.141.219 8.314-.09 12.442.233 3.974.311 7.635 1.748 8.776 6.099 1.087 4.139-.355 7.593-4.105 9.76-2.138 1.235-1.681 2.21-.322 3.697 2.979 3.258 5.823 6.641 8.993 10.284z"/><path fill="#fdfdfd" d="M898.863 75.04c.157-2.302-.816-4.944 2.912-4.472 2.641.334 5.717.208 5.652 3.912-.064 3.627-2.93 4.208-5.913 4.505-4.043.402-2.053-2.691-2.651-3.945z"/></svg>