<svg width="27" height="27" viewBox="0 0 27 27" fill="none" xmlns="http://www.w3.org/2000/svg">
<path d="M17.715 9.1987C19.4769 9.1987 21.1666 9.8986 22.4124 11.1444C23.6583 12.3903 24.3582 14.08 24.3582 15.8418V23.5922H19.9294V15.8418C19.9294 15.2545 19.6961 14.6913 19.2808 14.276C18.8656 13.8608 18.3023 13.6275 17.715 13.6275C17.1277 13.6275 16.5645 13.8608 16.1492 14.276C15.734 14.6913 15.5007 15.2545 15.5007 15.8418V23.5922H11.0719V15.8418C11.0719 14.08 11.7718 12.3903 13.0176 11.1444C14.2635 9.8986 15.9532 9.1987 17.715 9.1987V9.1987Z" stroke="#3B393C" stroke-width="2.16405" stroke-linecap="round" stroke-linejoin="round"/>
<path d="M6.64311 10.3059H2.21436V23.5922H6.64311V10.3059Z" stroke="#3B393C" stroke-width="2.16405" stroke-linecap="round" stroke-linejoin="round"/>
<path d="M4.42873 6.98432C5.6517 6.98432 6.64311 5.9929 6.64311 4.76994C6.64311 3.54697 5.6517 2.55556 4.42873 2.55556C3.20577 2.55556 2.21436 3.54697 2.21436 4.76994C2.21436 5.9929 3.20577 6.98432 4.42873 6.98432Z" stroke="#3B393C" stroke-width="2.16405" stroke-linecap="round" stroke-linejoin="round"/>
</svg>
