<svg width="67" height="40" viewBox="0 0 67 40" fill="none" xmlns="http://www.w3.org/2000/svg">
<path d="M39.7422 19.6016C39.7422 7.24219 30.0352 0.515625 15.5977 0.515625H0.476562V1.69141C3.67578 2.23828 4.25 2.86719 4.25 5.30078V35.2148C4.25 37.6484 3.67578 38.2773 0.476562 38.8242V40H15.7617C28.832 40 39.7422 32.7539 39.7422 19.6016ZM30.6367 20.1758C30.6367 31.332 24.7305 38.25 14.6953 38.5508L12.4805 38.6328V1.88281L14.6953 1.96484C24.8945 2.26562 30.6641 9.48438 30.6367 20.1758Z" fill="#3B393C"/>
<path d="M61.218 33.0273L49.6789 0.515625H44.6203L33.2727 31.9062C31.3312 37.3203 30.4289 38.332 27.5578 38.8242V40H38.2766V38.8242C34.4484 38.25 33.9836 37.0469 35.6242 32.043L37.5383 26.2188H50.1984L52.4406 32.8633C53.8625 37.1289 53.1789 38.332 49.6789 38.8242V40H66.4406V38.8242C63.7063 38.332 62.7492 37.3203 61.218 33.0273ZM38.0852 24.5508L43.7727 7.26953L49.6242 24.5508H38.0852Z" fill="#3B393C"/>
</svg>
