<?xml version="1.0" standalone="no"?>
<!DOCTYPE svg PUBLIC "-//W3C//DTD SVG 20010904//EN"
 "http://www.w3.org/TR/2001/REC-SVG-20010904/DTD/svg10.dtd">
<svg version="1.0" xmlns="http://www.w3.org/2000/svg"
 width="1072.000000pt" height="1072.000000pt" viewBox="0 0 1072.000000 1072.000000"
 preserveAspectRatio="xMidYMid meet">
<metadata>
Created by potrace 1.11, written by Peter Selinger 2001-2013
</metadata>
<g transform="translate(0.000000,1072.000000) scale(0.100000,-0.100000)"
fill="#000000" stroke="none">
<path d="M79 8471 c-1 -3 -2 -43 -3 -89 -1 -74 4 -94 24 -98 40 -7 101 -16
107 -16 5 0 14 -4 21 -10 6 -6 12 -8 12 -5 0 11 168 -41 226 -69 109 -53 173
-139 200 -266 11 -56 20 -291 11 -305 -3 -5 -2 -15 3 -22 4 -8 4 -27 0 -42 -5
-16 -5 -29 0 -29 5 0 5 -12 1 -27 -4 -16 -5 -39 -1 -53 4 -14 4 -36 1 -50 -4
-14 -4 -45 -1 -70 3 -25 2 -62 -1 -82 -3 -20 -3 -42 1 -49 4 -6 5 -23 1 -38
-4 -14 -4 -46 -1 -71 3 -25 2 -62 -1 -82 -3 -20 -3 -42 1 -48 4 -7 5 -23 1
-36 -3 -13 -4 -190 -1 -393 3 -203 2 -385 -1 -404 -3 -20 -2 -41 2 -48 4 -6 4
-23 0 -38 -4 -14 -4 -46 -1 -71 3 -25 2 -62 -1 -82 -3 -20 -3 -42 1 -49 4 -6
5 -23 1 -38 -4 -14 -4 -46 -1 -71 3 -25 2 -62 -1 -82 -3 -20 -3 -42 1 -49 4
-6 5 -23 1 -38 -4 -14 -4 -46 -1 -71 3 -25 2 -62 -1 -82 -3 -20 -3 -42 1 -49
4 -6 5 -23 1 -38 -4 -14 -4 -46 -1 -71 3 -25 2 -62 -1 -82 -3 -20 -3 -42 1
-48 4 -7 5 -23 1 -36 -3 -13 -4 -190 -1 -393 3 -204 2 -380 -1 -393 -3 -13 -3
-34 1 -48 4 -14 4 -36 0 -50 -3 -13 -3 -45 0 -70 3 -25 3 -62 -1 -82 -3 -20
-2 -42 2 -49 4 -6 4 -23 0 -38 -4 -14 -4 -46 -1 -71 3 -25 2 -62 -1 -82 -3
-20 -3 -42 1 -49 4 -6 4 -25 0 -40 -5 -16 -5 -29 0 -29 5 0 5 -12 1 -27 -4
-16 -5 -39 -1 -53 4 -14 3 -37 -1 -52 -4 -14 -5 -28 -3 -31 3 -2 4 -33 4 -68
0 -35 -1 -73 0 -84 0 -11 0 -31 -1 -45 0 -14 -1 -29 -1 -35 1 -5 1 -39 1 -75
0 -70 1 -93 2 -112 4 -77 -8 -333 -18 -384 -27 -132 -90 -211 -210 -266 -63
-28 -205 -69 -288 -83 -92 -15 -90 -13 -90 -113 l1 -87 1364 0 c1212 0 1447 3
1605 20 101 11 133 15 170 19 76 10 120 16 145 21 58 12 87 17 120 21 19 2 62
10 95 18 33 8 71 17 85 20 134 25 503 135 595 176 11 5 43 18 71 29 63 24 133
55 199 87 28 13 55 24 62 24 6 0 13 3 15 8 2 4 30 20 63 37 84 41 266 149 353
208 40 27 75 48 77 45 14 -14 -140 -260 -207 -328 -49 -51 -112 -100 -127
-100 -6 0 -11 -4 -11 -9 0 -9 -133 -67 -171 -75 -13 -2 -31 -7 -39 -10 -8 -3
-28 -8 -45 -11 -16 -3 -37 -8 -45 -10 -8 -2 -21 -4 -27 -4 -10 -1 -13 -27 -13
-96 l0 -95 858 0 858 0 -1 90 c0 49 -3 92 -7 95 -3 3 -30 10 -59 15 -135 24
-141 26 -212 51 -237 83 -315 218 -283 489 11 86 9 81 46 227 18 70 33 133 34
138 1 6 7 19 13 30 6 11 12 25 12 30 1 6 13 47 27 93 22 74 34 96 69 136 43
47 202 305 264 429 80 161 95 193 131 297 13 36 27 69 32 75 6 6 329 10 924
10 l914 0 15 -40 c8 -22 28 -80 44 -130 17 -49 55 -164 86 -255 31 -91 58
-172 60 -180 3 -15 31 -97 46 -135 15 -41 22 -60 25 -70 4 -15 104 -318 111
-335 3 -8 8 -24 10 -35 2 -11 7 -31 13 -45 11 -31 27 -93 35 -139 3 -19 8 -37
10 -41 4 -7 14 -124 15 -185 3 -150 -66 -265 -202 -333 -63 -32 -209 -74 -297
-86 -24 -3 -45 -7 -47 -9 -3 -2 -6 -123 -5 -164 l1 -23 1340 0 1341 0 -3 98
c-2 65 -7 96 -14 95 -26 -5 -205 51 -279 87 -87 42 -191 129 -240 202 -17 23
-32 45 -35 48 -15 13 -109 186 -115 210 -1 3 -9 23 -19 45 -41 91 -96 231 -96
245 0 9 -4 20 -9 25 -5 6 -28 64 -51 130 -62 175 -120 338 -127 355 -3 8 -7
21 -9 29 -1 7 -27 81 -58 165 -30 83 -58 163 -61 179 -4 15 -11 30 -16 33 -5
3 -9 14 -9 25 0 10 -4 27 -10 37 -5 9 -22 55 -39 102 -16 47 -50 144 -76 215
-26 72 -48 137 -50 145 -2 8 -17 51 -33 95 -17 44 -44 119 -61 168 -17 48 -45
126 -62 175 -17 48 -44 125 -60 172 -17 47 -34 93 -39 102 -6 10 -10 25 -10
33 0 8 -5 23 -10 33 -6 9 -34 87 -64 172 -30 85 -93 265 -141 400 -48 135 -88
250 -89 255 -2 6 -9 24 -15 40 -7 17 -21 55 -31 85 -10 30 -37 107 -60 170
-80 222 -92 255 -94 265 -2 6 -6 17 -9 25 -3 8 -15 44 -28 80 -12 36 -27 79
-34 95 -7 17 -16 41 -20 55 -3 14 -10 34 -15 45 -5 11 -19 49 -30 85 -12 36
-26 74 -31 85 -5 11 -23 61 -40 110 -33 96 -87 250 -96 275 -3 8 -7 20 -9 25
-1 6 -9 28 -17 50 -38 103 -99 272 -102 285 -2 8 -4 16 -5 18 -2 1 -3 5 -5 10
-1 4 -5 14 -8 22 -3 8 -32 87 -63 175 -30 88 -63 178 -71 201 l-15 41 -403 -1
c-222 -1 -406 -3 -409 -6 -2 -3 -16 -39 -30 -80 -31 -93 -94 -268 -105 -295
-5 -11 -19 -49 -31 -85 -12 -36 -26 -74 -31 -85 -5 -11 -13 -33 -18 -50 -5
-16 -28 -79 -51 -140 -22 -60 -43 -117 -45 -125 -4 -16 -51 -145 -62 -170 -3
-8 -7 -19 -8 -25 -5 -21 -126 -351 -134 -365 -5 -9 -12 -31 -16 -50 -4 -19
-12 -41 -16 -50 -5 -8 -29 -71 -53 -140 -25 -69 -57 -159 -71 -200 -15 -41
-33 -89 -41 -107 -8 -17 -14 -35 -14 -40 0 -4 -21 -62 -46 -128 -25 -66 -46
-125 -48 -132 -1 -7 -5 -16 -9 -19 -4 -4 -7 -15 -7 -25 0 -20 -16 -35 -18 -16
-3 43 -71 276 -102 352 -4 11 -20 52 -35 90 -156 393 -417 749 -750 1024 -55
45 -110 91 -123 101 -13 11 -36 27 -53 37 -16 10 -29 21 -29 25 0 4 -4 8 -9 8
-6 0 -31 15 -58 33 -95 64 -211 130 -369 208 -88 43 -164 79 -168 79 -4 0 -22
6 -39 14 -72 33 -283 111 -327 121 -8 2 -28 8 -45 15 -16 6 -31 11 -32 11 -2
0 -8 2 -15 4 -24 9 -333 84 -368 90 -19 3 -53 10 -75 15 -22 5 -69 14 -105 19
-36 6 -74 13 -86 15 -12 2 -45 7 -75 11 -30 3 -65 8 -79 10 -14 2 -50 6 -80
10 -30 4 -66 8 -80 10 -14 2 -66 7 -117 10 -51 4 -120 9 -155 12 -92 7 -2828
11 -2829 4z m2271 -226 c123 -4 224 -11 287 -20 18 -3 57 -8 85 -11 44 -5 133
-23 307 -60 14 -3 28 -7 33 -10 5 -3 19 -7 32 -10 85 -15 350 -119 461 -181
33 -19 77 -41 98 -51 20 -9 37 -20 37 -24 0 -5 7 -8 15 -8 8 0 15 -4 15 -10 0
-5 6 -10 13 -10 7 0 23 -9 35 -20 12 -11 25 -20 30 -20 5 0 17 -9 27 -20 10
-11 22 -20 26 -20 9 0 12 -2 129 -101 110 -94 231 -217 300 -305 8 -11 32 -40
53 -66 20 -25 37 -50 37 -55 1 -4 14 -24 30 -43 17 -19 30 -39 30 -46 0 -6 9
-19 20 -29 10 -9 18 -20 17 -24 -1 -3 11 -25 26 -48 38 -60 142 -277 181 -381
56 -146 123 -371 141 -472 2 -14 9 -50 15 -80 20 -99 38 -215 45 -285 2 -22 6
-69 9 -105 21 -219 21 -591 1 -800 -4 -36 -8 -78 -10 -95 -6 -75 -23 -186 -39
-271 -2 -12 -7 -39 -10 -60 -4 -22 -11 -57 -17 -79 -6 -22 -13 -51 -16 -65
-16 -96 -125 -427 -167 -509 -7 -14 -25 -53 -40 -86 -169 -372 -481 -738 -818
-958 -46 -30 -99 -62 -118 -72 -19 -9 -42 -23 -50 -30 -8 -7 -26 -16 -40 -20
-14 -4 -27 -11 -30 -15 -11 -16 -304 -133 -390 -155 -8 -3 -51 -14 -95 -26
-89 -23 -111 -29 -140 -33 -11 -2 -51 -9 -90 -16 -38 -7 -79 -14 -90 -15 -11
-1 -20 -3 -20 -5 0 -1 -20 -3 -45 -5 -25 -2 -65 -6 -90 -9 -60 -8 -327 -19
-465 -20 l-109 -1 -1 2920 c0 1606 1 2928 3 2937 4 16 15 17 116 13 61 -3 167
-7 236 -10z m4681 -927 c13 -40 24 -75 24 -78 1 -3 4 -12 8 -20 10 -24 78
-224 82 -240 3 -11 254 -754 255 -755 1 -1 131 -383 135 -395 2 -8 72 -215
155 -460 133 -392 176 -518 186 -555 2 -5 13 -37 24 -70 12 -33 25 -72 30 -86
l8 -26 -834 -1 c-633 0 -834 2 -834 11 0 7 5 28 10 47 11 37 19 77 25 122 2
15 6 35 9 45 3 10 8 46 11 80 3 34 8 71 10 82 9 49 17 147 21 281 l4 145 66
200 c36 110 69 209 74 220 5 11 17 45 26 75 9 30 41 129 71 220 30 91 56 172
58 180 2 8 11 32 19 53 9 20 14 37 11 37 -2 0 4 20 15 45 11 25 20 49 20 53 2
16 13 58 19 67 3 6 6 15 7 20 1 6 19 57 38 115 20 58 38 112 41 120 2 8 10 34
19 58 8 23 16 46 17 50 3 15 8 29 44 137 21 61 38 115 39 120 1 6 4 15 7 20 5
8 15 39 24 75 4 19 27 80 29 80 2 0 14 -33 27 -72z"/>
</g>
</svg>
